PathFileType	4	(X/Y/Z)	C:/Users/beibeiliu/ov580/test_trc/User3\sequence.30_training_dense_right.trc
DataRate	CameraRate	NumFrames	NumMarkers	Units	OrigDataRate	OrigDataStartFrame	OrigNumFrames
120	120	20	19	mm	120	180	239
Frame#	Time	ThumbCMC			ThumbMCP			ThumbIP			ThumbTip			IndexMCP			IndexPIP			IndexTip			MiddleMCP			MiddlePIP			MiddleTip			RingMCP			RingPIP			RingTip			PinkyMCP			PinkyPIP			PinkyTip			BackHand1			BackHand2			BackHand3	
		X0	Y0	Z0	X1	Y1	Z1	X2	Y2	Z2	X3	Y3	Z3	X4	Y4	Z4	X5	Y5	Z5	X6	Y6	Z6	X7	Y7	Z7	X8	Y8	Z8	X9	Y9	Z9	X10	Y10	Z10	X11	Y11	Z11	X12	Y12	Z12	X13	Y13	Z13	X14	Y14	Z14	X15	Y15	Z15	X16	Y16	Z16	X17	Y17	Z17	X18	Y18	Z18	
179	1.49167	123.575	-22.6653	44.4065	106.229	-32.2164	20.4363	92.5968	-38.1814	-2.25716	88.0682	-45.0483	-26.7349	117.238	-1.48951	-32.3987	99.8181	-13.5559	-53.8496	96.1454	-38.0564	-65.1677	135.202	-8.57276	-39.3316	123.475	-29.1203	-62.2967	114.788	-66.2043	-60.0592	157.745	-13.8722	-40.2512	144.274	-26.3388	-64.273	134.085	-55.0357	-73.7126	176.904	-24.1128	-31.6412	175.367	-29.4381	-51.9532	168.623	-46.4448	-74	176.495	-6.52455	12.547	187.592	-9.56302	40.2216	150.198	1.96638	35.3322	
180	1.5	126.143	-23.4192	43.8114	105.189	-34.1423	21.5827	94.1964	-40.2796	-7.75605	91.3409	-50.703	-31.3078	121.638	-0.618587	-28.6384	106.222	-13.7777	-57.9612	94.5786	-41.6479	-62.137	137.728	-6.82888	-42.7519	123.413	-25.4635	-64.891	117.595	-62.9	-58.9629	155.279	-13.9611	-38.4895	146.668	-33.3684	-65.7244	136.096	-59.9069	-64.7903	177.763	-27.1744	-28.7437	171.019	-36.8886	-54.5839	158.523	-61.1863	-62.9213	178.615	-6.05393	7.50183	189.163	-8.65522	40.9288	152.263	2.57515	34.5146	
181	1.50833	124.544	-23.0384	40.7539	104.952	-33.8724	16.4192	95.495	-42.723	-8.22312	102.036	-53.0203	-32.6719	121.499	1.18599	-30.6298	107.421	-13.3221	-58.6881	99.2861	-41.347	-57.6569	144.282	-4.22911	-41.861	129.418	-21.4965	-68.3391	117.317	-58.189	-57.1081	162.37	-16.6105	-40.2037	150.025	-36.4334	-63.7932	134.439	-62.1076	-53.9917	177.808	-31.146	-33.9922	164.341	-46.0218	-51.7805	151.404	-68.4754	-49.2519	176.021	-6.63037	12.0053	186.296	-9.06865	38.0674	153.093	-0.536204	32.9601	
182	1.51667	122.704	-21.9336	41.0048	106.434	-34.0355	16.8331	97.2819	-42.4308	-17.3437	111.076	-54.3983	-37.8211	124.334	4.56069	-34.888	112.911	-10.2959	-60.8099	105.391	-39.0851	-55.4375	146.452	-1.34589	-40.9368	136.632	-16.1103	-69.4476	120.268	-53.3916	-54.1248	160.689	-16.1373	-38.9875	149.969	-39.0513	-63.032	140.161	-64.6687	-43.1494	175.597	-33.5927	-35.7484	159.935	-52.2215	-47.2532	148.631	-72.4859	-33.8094	177.938	-6.37705	7.26299	189.625	-13.305	38.7255	152.711	2.77428	31.996	
183	1.525	125.956	-22.2606	38.9394	106.568	-33.1438	11.7934	98.6885	-41.7901	-17.1004	115.453	-54.1121	-38.8048	130.345	4.36695	-31.4018	113.912	-5.80888	-60.3623	103.504	-35.1433	-53.4834	150.66	-1.06309	-43.1852	136.808	-16.9399	-71.0582	127.17	-50.0135	-50.807	161.543	-17.5582	-45.5472	148.057	-42.416	-60.4086	138.999	-61.4816	-37.0613	177.594	-37.8177	-33.938	160.58	-58.3849	-44.2141	148.475	-71.8145	-18.3296	179.456	-7.2094	7.54402	188.87	-13.3739	38.8927	151.76	2.17801	29.7417	
184	1.53333	123.435	-18.7577	36.447	108.41	-28.8326	9.12656	101.613	-38.9052	-19.9579	119.403	-50.7212	-36.1876	130.583	7.47096	-34.6028	118.507	-5.74157	-62.8872	108.918	-33.6044	-52.7298	151.361	-0.659611	-46.3734	140.147	-16.5469	-69.9422	127.231	-49.4305	-45.0494	161.581	-20.0608	-42.5265	146.008	-43.1236	-58.3394	140.819	-60.7542	-29.7953	174.203	-38.3477	-32.4265	160.991	-63.0378	-41.6117	153.861	-72.9169	-14.2531	178.527	-9.05257	8.37712	185.802	-11.6058	36.4793	153.691	0.909438	29.5507	
185	1.54167	127.79	-15.707	38.1791	106.286	-23.6977	11.9228	104.301	-32.7668	-17.628	118.301	-47.0545	-37.2576	138.341	10.2694	-37.0586	126.109	0.539101	-63.32	112.956	-30.4609	-47.2424	151.046	0.573637	-48.7455	138.246	-22.0823	-67.8663	128.469	-44.282	-40.109	162.947	-22.6893	-46.7124	150.596	-44.4246	-56.9106	138.148	-56.6744	-25.8687	175.295	-38.2361	-31.7396	156.998	-60.4718	-40.1456	152.822	-69.7095	-13.6737	182.003	-9.25977	5.81562	190.607	-16.2641	39.9351	157.95	3.47126	31.2508	
186	1.55	132.866	-7.43595	37.9724	111.671	-12.2387	8.7817	107.732	-20.1759	-21.8538	117.663	-36.2726	-40.4114	147.115	14.9974	-35.6942	130.989	3.06899	-62.5156	117.523	-19.5921	-42.3365	158.114	0.070275	-46.9473	138.336	-18.6681	-66.1193	130.32	-38.4497	-27.7835	168.638	-22.9039	-46.3228	149.938	-43.4051	-52.5702	139.276	-49.9329	-21.1516	180.483	-39.4387	-36.5021	157.098	-52.606	-41.3106	147.957	-61.657	-15.5277	188.922	-10.0961	8.76091	196.993	-16.6133	38.3241	166.559	8.58484	25.6905	
187	1.55833	137.545	-2.66416	37.2462	118.997	-6.05498	6.31443	107.894	-12.6022	-20.817	116.594	-29.3746	-42.7168	154.53	14.0748	-38.0363	128.989	1.85536	-60.5213	120.924	-16.5954	-35.2069	161.747	-2.45427	-47.8701	135.178	-21.9278	-58.3859	135.28	-33.0101	-20.8162	169.28	-21.9965	-46.2757	147.52	-39.8585	-50.4843	141.725	-43.9447	-14.6458	181.527	-39.5607	-38.3164	157.997	-54.6552	-41.2168	149.095	-58.3697	-11.5072	197.28	-12.9475	8.41762	199.326	-17.4165	35.8688	172.685	8.71017	25.4689	
188	1.56667	142.151	0.270881	35.9045	119.273	1.58977	6.80678	116.219	-5.78242	-25.638	125.4	-25.0453	-42.8202	152.773	14.8163	-42.0946	128.43	-3.61202	-54.9886	122.719	-16.4996	-26.863	161.262	-2.50352	-50.7114	140.136	-24.3736	-57.4014	138.862	-31.1991	-15.0349	170.131	-21.1409	-44.2429	148.347	-41.9695	-47.1629	146.198	-42.5288	-11.2021	181.404	-36.411	-34.9384	156.517	-49.9895	-39.984	150.337	-52.1422	-8.68192	198.675	-14.3005	9.23579	201.294	-16.6155	34.828	180.53	6.73493	28.481	
189	1.575	145.052	8.01879	33.1853	133.789	12.6692	0.938502	137.298	1.38831	-31.3605	151.433	-21.9991	-37.2983	153.245	12.1388	-39.5757	123.807	-5.19354	-50.4508	115.967	-15.5096	-22.3404	161.334	-4.60244	-49.6681	131.992	-24.6527	-50.0059	132.808	-31.4456	-12.3194	168.101	-23.4793	-45.671	144.458	-40.0152	-40.982	149.379	-40.3045	-7.88825	183.242	-40.6677	-34.4614	154.5	-48.4879	-34.8218	154.057	-49.5009	-7.2376	202.769	-14.028	6.86377	202.875	-17.2741	36.6779	180.475	10.3926	26.533	
190	1.58333	150.866	10.3028	35.5226	142.101	18.1214	0.160799	144.963	3.73365	-27.8927	158.722	-23.3183	-33.8483	155.103	12.1734	-42.2862	126.916	-4.68098	-47.8876	120.265	-15.8693	-16.3457	166.331	-6.366	-46.6535	135.938	-26.8673	-46.7636	137.81	-31.9365	-7.56731	168.405	-26.0356	-43.5724	145.44	-40.3023	-36.1454	152.408	-34.6017	-0.884792	181.436	-38.9751	-32.0994	153.961	-49.8852	-30.517	156.651	-48.3191	-1.31482	205.082	-16.4633	3.6115	204.93	-19.5422	38.576	185.178	12.0736	25.1801	
191	1.59167	158.803	14.0307	28.4175	145.783	21.8817	2.85231	145.839	6.59774	-31.6671	151.484	-17.8997	-36.7412	159.543	6.7567	-44.841	131.299	-5.86654	-44.8139	126.524	-12.9474	-14.0024	165.87	-12.4563	-49.1797	138.63	-26.4068	-44.674	139.688	-27.7225	-3.96696	173.71	-30.0256	-40.0362	145.367	-39.6524	-30.3709	152.955	-31.5495	1.67177	179.599	-46.6353	-33.1523	153.034	-53.7237	-22.9904	158.866	-42.3803	5.57792	208.669	-15.798	4.57195	206.421	-20.6701	36.9039	192.644	7.13762	19.8989	
192	1.6	163.693	18.0639	25.6697	141.136	23.898	-1.14486	135.23	11.6916	-30.3594	135.749	-13.0277	-40.2903	164.493	10.3167	-42.4463	138.187	-5.77505	-39.6238	145.271	-9.75114	-4.00967	169.734	-14.7581	-47.4815	139.301	-22.2073	-37.3536	144.292	-21.4022	1.8458	169.624	-30.6998	-39.387	146.082	-40.154	-26.0502	155.923	-26.534	6.42031	174.914	-44.9206	-30.1534	149.781	-49.0657	-16.8213	159.099	-44.8531	10.633	210.455	-23.9338	4.28893	209.675	-24.0249	33.5647	200.026	6.90063	23.4143	
193	1.60833	170.417	17.262	28.0654	148.863	25.4137	-4.39454	136.268	16.285	-26.4212	137.337	-12.3451	-38.3058	171.434	8.65888	-41.7364	139.262	-0.295873	-37.1217	148.132	-2.99056	-2.55949	168.852	-13.4575	-45.6026	140.167	-17.5301	-37.4415	145.469	-16.665	2.24047	172.975	-33.2546	-35.9173	143.376	-32.8481	-21.1778	157.193	-24.9369	9.84428	173.279	-51.7828	-26.4115	146.981	-47.1365	-10.2788	161.784	-41.8613	15.6969	213.281	-31.0906	1.16882	212.437	-32.3909	37.3	204.98	2.68013	22.54	
194	1.61667	177.061	20.7651	28.5773	165.212	29.2592	-5.22973	158.342	8.20587	-29.5709	156.153	-18.1796	-28.3493	170.086	4.05112	-45.0578	138.028	2.67013	-39.7687	137.699	-2.51036	-8.17891	166.998	-16.4295	-46.4075	137.287	-19.5133	-34.7399	142.916	-16.3498	3.86393	167.333	-33.0956	-34.6661	141.701	-34.4651	-19.821	154.767	-28.29	10.5167	166.41	-45.5762	-25.9637	145.181	-47.0654	-10.3207	157.925	-37.7903	14.5585	209.603	-31.6433	0.844731	212.701	-32.8252	34.8829	207.878	1.66666	18.4964	
195	1.625	182.633	17.3577	25.6665	173.795	24.8932	-5.70262	164.574	5.71736	-25.6909	161.817	-20.6842	-20.507	171.922	3.2122	-45.7572	139.888	5.8331	-43.0751	137.785	7.35546	-7.71642	168.045	-13.5742	-46.3278	136.813	-14.5504	-35.2598	141.103	-16.7258	1.59496	164.467	-35.1411	-34.1192	140.105	-32.5639	-19.973	154.761	-24.8815	10.8053	163.526	-47.9253	-25.2568	142.66	-45.8477	-7.89722	160.149	-35.0515	17.7046	208.228	-31.9912	4.24709	210.255	-35.3504	34.8919	208.545	-2.8934	19.409	
196	1.63333	185.169	17.4081	25.5965	176.271	23.5769	-7.21106	165.309	5.38499	-27.429	157.856	-21.0058	-26.2015	174.921	1.85362	-49.2724	143.864	5.83353	-48.0325	136.102	10.4266	-15.5143	166.932	-17.0422	-47.3572	136.142	-14.0701	-36.9997	143.463	-12.2877	3.45776	164.303	-32.8036	-34.9217	137.37	-31.0672	-18.5273	153.539	-24.5753	10.8869	162.816	-46.236	-22.92	140.541	-39.9842	-3.93375	155.42	-38.2348	19.9536	208.477	-41.3085	1.62885	208.894	-39.0445	37.9966	210.077	-6.91638	17.0373	
197	1.64167	186.991	16.2855	25.3097	174.555	23.16	-10.3023	161.639	7.79668	-33.1974	152.19	-15.4299	-30.8805	180.102	-2.07586	-49.6136	146.4	3.92275	-55.6115	133.67	7.91789	-29.3767	171.185	-17.7595	-46.9827	138.263	-11.5162	-42.5289	144.827	-11.1316	0.811238	162.336	-32.5834	-34.4997	135.495	-28.0781	-17.7727	149.914	-19.0786	8.65522	158.532	-52.0501	-22.0509	137.763	-36.7274	-5.28511	155.257	-32.6185	15.5154	203.713	-42.2101	1.67343	207.904	-37.6885	37.9375	213.435	-7.05573	15.4335	
198	1.65	187.172	14.5962	21.0386	166.991	23.5084	-4.97687	148.559	13.6859	-30.999	133.56	-8.4579	-42.0419	186.424	-5.67742	-52.0393	153.804	-2.62596	-67.3802	131.887	10.9948	-45.0837	166.855	-24.664	-49.2039	137.036	-9.04528	-41.9513	146.137	-7.66918	-2.93079	159.373	-37.3038	-34.1738	132.721	-24.8326	-20.2574	146.447	-16.6432	5.03716	153.67	-50.3866	-22.5876	134.364	-35.4484	-6.00118	149.663	-30.8782	15.937	201.187	-44.8899	3.68193	207.996	-40.6507	31.6944	211.725	-13.3959	14.5895	
